<svg width="116" height="61" viewBox="0 0 116 61" fill="none" xmlns="http://www.w3.org/2000/svg">
<path d="M1.64092 12V2.98182H5.19888C5.88287 2.98182 6.46559 3.11245 6.94703 3.37372C7.42847 3.63206 7.79542 3.99167 8.04788 4.45256C8.30328 4.91051 8.43098 5.43892 8.43098 6.03778C8.43098 6.63665 8.30181 7.16506 8.04348 7.62301C7.78515 8.08097 7.41086 8.43764 6.92061 8.69304C6.4333 8.94844 5.84324 9.07614 5.15044 9.07614H2.88268V7.54815H4.8422C5.20915 7.54815 5.51152 7.48504 5.7493 7.35881C5.99002 7.22964 6.1691 7.05204 6.28652 6.82599C6.40688 6.59702 6.46706 6.33428 6.46706 6.03778C6.46706 5.73835 6.40688 5.47708 6.28652 5.25398C6.1691 5.02794 5.99002 4.85327 5.7493 4.72997C5.50858 4.60374 5.20328 4.54063 4.8334 4.54063H3.5476V12H1.64092ZM13.9716 9.12017V5.23636H15.8474V12H14.0464V10.7714H13.976C13.8233 11.1678 13.5694 11.4863 13.2142 11.727C12.8619 11.9677 12.4318 12.0881 11.924 12.0881C11.4719 12.0881 11.0741 11.9853 10.7307 11.7798C10.3872 11.5743 10.1186 11.2822 9.92484 10.9036C9.73402 10.5249 9.63715 10.0713 9.63421 9.5429V5.23636H11.5101V9.20824C11.513 9.60748 11.6201 9.92306 11.8315 10.155C12.0429 10.3869 12.3262 10.5028 12.6814 10.5028C12.9074 10.5028 13.1188 10.4515 13.3155 10.3487C13.5121 10.243 13.6707 10.0875 13.791 9.88196C13.9143 9.67647 13.9745 9.42254 13.9716 9.12017ZM17.3831 12V2.98182H19.259V6.37244H19.3162C19.3984 6.19044 19.5173 6.00549 19.6729 5.81761C19.8314 5.6268 20.0369 5.46828 20.2894 5.34205C20.5448 5.21288 20.8618 5.1483 21.2405 5.1483C21.7337 5.1483 22.1887 5.27746 22.6056 5.5358C23.0224 5.79119 23.3556 6.17723 23.6051 6.69389C23.8547 7.20762 23.9794 7.85199 23.9794 8.62699C23.9794 9.38144 23.8576 10.0185 23.6139 10.5381C23.3732 11.0547 23.0444 11.4466 22.6276 11.7138C22.2137 11.978 21.7498 12.1101 21.2361 12.1101C20.8721 12.1101 20.5624 12.0499 20.307 11.9295C20.0545 11.8092 19.8476 11.658 19.6861 11.476C19.5246 11.2911 19.4013 11.1046 19.3162 10.9168H19.2325V12H17.3831ZM19.2193 8.61818C19.2193 9.02036 19.2751 9.37116 19.3867 9.6706C19.4982 9.97003 19.6597 10.2034 19.871 10.3707C20.0824 10.5351 20.3393 10.6173 20.6416 10.6173C20.9469 10.6173 21.2053 10.5337 21.4166 10.3663C21.628 10.1961 21.788 9.96122 21.8966 9.66179C22.0082 9.35942 22.0639 9.01155 22.0639 8.61818C22.0639 8.22775 22.0096 7.88428 21.901 7.58778C21.7924 7.29129 21.6324 7.05938 21.421 6.89205C21.2097 6.72472 20.9499 6.64105 20.6416 6.64105C20.3363 6.64105 20.078 6.72178 19.8666 6.88324C19.6582 7.0447 19.4982 7.27367 19.3867 7.57017C19.2751 7.86667 19.2193 8.216 19.2193 8.61818ZM27.1069 2.98182V12H25.2311V2.98182H27.1069ZM28.6096 12V5.23636H30.4855V12H28.6096ZM29.5519 4.36449C29.273 4.36449 29.0338 4.27202 28.8342 4.08707C28.6375 3.89919 28.5391 3.67462 28.5391 3.41335C28.5391 3.15502 28.6375 2.93338 28.8342 2.74844C29.0338 2.56056 29.273 2.46662 29.5519 2.46662C29.8308 2.46662 30.0686 2.56056 30.2653 2.74844C30.4649 2.93338 30.5647 3.15502 30.5647 3.41335C30.5647 3.67462 30.4649 3.89919 30.2653 4.08707C30.0686 4.27202 29.8308 4.36449 29.5519 4.36449ZM37.6157 7.16506L35.8983 7.27074C35.869 7.12396 35.8059 6.99186 35.709 6.87443C35.6121 6.75407 35.4844 6.65866 35.3259 6.58821C35.1703 6.51482 34.9839 6.47813 34.7667 6.47813C34.476 6.47813 34.2309 6.53977 34.0313 6.66307C33.8317 6.78343 33.7319 6.94489 33.7319 7.14744C33.7319 7.3089 33.7965 7.44541 33.9256 7.55696C34.0548 7.66851 34.2764 7.75805 34.5905 7.82557L35.8147 8.07216C36.4723 8.2072 36.9625 8.42443 37.2854 8.72386C37.6083 9.0233 37.7698 9.41667 37.7698 9.90398C37.7698 10.3473 37.6392 10.7362 37.3779 11.0709C37.1196 11.4055 36.7643 11.6668 36.3123 11.8547C35.8631 12.0396 35.345 12.1321 34.7579 12.1321C33.8625 12.1321 33.1491 11.9457 32.6178 11.5729C32.0894 11.1971 31.7797 10.6863 31.6887 10.0405L33.5337 9.94361C33.5895 10.2166 33.7245 10.425 33.9388 10.5689C34.1531 10.7098 34.4276 10.7803 34.7623 10.7803C35.0911 10.7803 35.3553 10.7171 35.5549 10.5909C35.7574 10.4617 35.8602 10.2959 35.8631 10.0933C35.8602 9.92306 35.7883 9.78362 35.6474 9.675C35.5064 9.56345 35.2892 9.47831 34.9956 9.4196L33.8243 9.18622C33.1638 9.05412 32.6721 8.82514 32.3492 8.49929C32.0292 8.17344 31.8692 7.75805 31.8692 7.25313C31.8692 6.81866 31.9866 6.44437 32.2215 6.13026C32.4593 5.81615 32.7925 5.57396 33.2211 5.40369C33.6526 5.23343 34.1575 5.1483 34.7358 5.1483C35.5901 5.1483 36.2624 5.32884 36.7526 5.68991C37.2458 6.05099 37.5335 6.54271 37.6157 7.16506ZM40.8269 8.08977V12H38.951V2.98182H40.774V6.42969H40.8533C41.0059 6.03045 41.2525 5.7178 41.5931 5.49176C41.9336 5.26278 42.3607 5.1483 42.8744 5.1483C43.3441 5.1483 43.7537 5.25104 44.103 5.45653C44.4553 5.65909 44.7283 5.95118 44.922 6.33281C45.1187 6.71151 45.2156 7.16506 45.2127 7.69347V12H43.3368V8.02813C43.3397 7.61127 43.2341 7.28688 43.0198 7.05497C42.8084 6.82306 42.5119 6.7071 42.1303 6.7071C41.8749 6.7071 41.6488 6.76141 41.4521 6.87003C41.2584 6.97865 41.1057 7.13717 40.9942 7.3456C40.8856 7.55109 40.8298 7.79915 40.8269 8.08977ZM49.7713 12.1321C49.0755 12.1321 48.4767 11.9912 47.9747 11.7094C47.4756 11.4246 47.0911 11.0224 46.821 10.5028C46.5509 9.9803 46.4159 9.36236 46.4159 8.64901C46.4159 7.95327 46.5509 7.34266 46.821 6.81719C47.0911 6.29171 47.4712 5.8822 47.9615 5.58864C48.4547 5.29508 49.033 5.1483 49.6964 5.1483C50.1426 5.1483 50.558 5.22022 50.9426 5.36406C51.3301 5.50497 51.6677 5.7178 51.9554 6.00256C52.246 6.28731 52.472 6.64545 52.6335 7.07699C52.795 7.50559 52.8757 8.00758 52.8757 8.58295V9.09815H47.1645V7.93565H51.1099C51.1099 7.66558 51.0512 7.42633 50.9338 7.2179C50.8164 7.00947 50.6534 6.84654 50.445 6.72912C50.2395 6.60876 50.0003 6.54858 49.7273 6.54858C49.4425 6.54858 49.19 6.61463 48.9699 6.74673C48.7526 6.8759 48.5824 7.05057 48.4591 7.27074C48.3358 7.48797 48.2727 7.73016 48.2697 7.9973V9.10256C48.2697 9.43722 48.3314 9.72637 48.4547 9.97003C48.5809 10.2137 48.7585 10.4016 48.9875 10.5337C49.2165 10.6658 49.488 10.7318 49.8021 10.7318C50.0105 10.7318 50.2014 10.7025 50.3746 10.6438C50.5478 10.585 50.696 10.497 50.8193 10.3795C50.9426 10.2621 51.0365 10.1183 51.1011 9.94801L52.8361 10.0625C52.748 10.4794 52.5674 10.8434 52.2944 11.1545C52.0244 11.4628 51.675 11.7035 51.2464 11.8767C50.8208 12.047 50.3291 12.1321 49.7713 12.1321ZM56.5922 12.1101C56.0784 12.1101 55.6131 11.978 55.1963 11.7138C54.7824 11.4466 54.4536 11.0547 54.2099 10.5381C53.9692 10.0185 53.8488 9.38144 53.8488 8.62699C53.8488 7.85199 53.9736 7.20762 54.2231 6.69389C54.4727 6.17723 54.8044 5.79119 55.2183 5.5358C55.6352 5.27746 56.0916 5.1483 56.5878 5.1483C56.9665 5.1483 57.282 5.21288 57.5345 5.34205C57.7899 5.46828 57.9954 5.6268 58.151 5.81761C58.3095 6.00549 58.4299 6.19044 58.5121 6.37244H58.5693V2.98182H60.4407V12H58.5913V10.9168H58.5121C58.424 11.1046 58.2992 11.2911 58.1378 11.476C57.9792 11.658 57.7723 11.8092 57.5169 11.9295C57.2644 12.0499 56.9562 12.1101 56.5922 12.1101ZM57.1866 10.6173C57.489 10.6173 57.7444 10.5351 57.9528 10.3707C58.1642 10.2034 58.3256 9.97003 58.4372 9.6706C58.5517 9.37116 58.6089 9.02036 58.6089 8.61818C58.6089 8.216 58.5532 7.86667 58.4416 7.57017C58.33 7.27367 58.1686 7.0447 57.9572 6.88324C57.7459 6.72178 57.489 6.64105 57.1866 6.64105C56.8784 6.64105 56.6186 6.72472 56.4072 6.89205C56.1959 7.05938 56.0359 7.29129 55.9273 7.58778C55.8186 7.88428 55.7643 8.22775 55.7643 8.61818C55.7643 9.01155 55.8186 9.35942 55.9273 9.66179C56.0388 9.96122 56.1988 10.1961 56.4072 10.3663C56.6186 10.5337 56.8784 10.6173 57.1866 10.6173ZM64.8882 12V2.98182H66.764V6.37244H66.8213C66.9035 6.19044 67.0224 6.00549 67.178 5.81761C67.3365 5.6268 67.542 5.46828 67.7944 5.34205C68.0498 5.21288 68.3669 5.1483 68.7456 5.1483C69.2388 5.1483 69.6938 5.27746 70.1106 5.5358C70.5275 5.79119 70.8607 6.17723 71.1102 6.69389C71.3597 7.20762 71.4845 7.85199 71.4845 8.62699C71.4845 9.38144 71.3627 10.0185 71.119 10.5381C70.8783 11.0547 70.5495 11.4466 70.1326 11.7138C69.7187 11.978 69.2549 12.1101 68.7412 12.1101C68.3772 12.1101 68.0674 12.0499 67.8121 11.9295C67.5596 11.8092 67.3526 11.658 67.1912 11.476C67.0297 11.2911 66.9064 11.1046 66.8213 10.9168H66.7376V12H64.8882ZM66.7244 8.61818C66.7244 9.02036 66.7802 9.37116 66.8917 9.6706C67.0033 9.97003 67.1648 10.2034 67.3761 10.3707C67.5875 10.5351 67.8443 10.6173 68.1467 10.6173C68.452 10.6173 68.7103 10.5337 68.9217 10.3663C69.1331 10.1961 69.2931 9.96122 69.4017 9.66179C69.5132 9.35942 69.569 9.01155 69.569 8.61818C69.569 8.22775 69.5147 7.88428 69.4061 7.58778C69.2975 7.29129 69.1375 7.05938 68.9261 6.89205C68.7148 6.72472 68.4549 6.64105 68.1467 6.64105C67.8414 6.64105 67.5831 6.72178 67.3717 6.88324C67.1633 7.0447 67.0033 7.27367 66.8917 7.57017C66.7802 7.86667 66.7244 8.216 66.7244 8.61818ZM73.6763 14.5364C73.4385 14.5364 73.2154 14.5173 73.007 14.4791C72.8015 14.4439 72.6312 14.3984 72.4962 14.3426L72.9189 12.9423C73.1391 13.0098 73.3372 13.0465 73.5134 13.0524C73.6924 13.0583 73.8466 13.0172 73.9757 12.9291C74.1078 12.8411 74.215 12.6913 74.2972 12.48L74.4073 12.1937L71.981 5.23636H73.9537L75.354 10.2034H75.4244L76.8379 5.23636H78.8239L76.195 12.731C76.0688 13.095 75.8971 13.412 75.6798 13.6821C75.4655 13.9551 75.194 14.165 74.8652 14.3118C74.5364 14.4615 74.1401 14.5364 73.6763 14.5364Z" fill="#696671"/>
<path d="M4.01153 28.7858H0.953796V50.7483H4.01153V40.3718H17.1354V50.7483H20.1931V28.7858H17.1354V37.4985H4.01153V28.7858Z" fill="#06286E"/>
<path d="M20.7561 34.4729L28.0004 50.748C27.347 53.0475 26.4863 53.8034 24.4073 53.8034C23.9917 53.8034 23.4572 53.7433 22.7153 53.6222V56.4053C23.6055 56.4955 24.2589 56.5264 24.704 56.5264C28.6529 56.5264 29.3063 55.0438 31.236 50.6269L38.3025 34.4729H34.948L29.6334 48.1771L24.1999 34.4729H20.7561Z" fill="#06286E"/>
<path d="M52.2265 34.4732V37.1352C50.9502 35.139 48.8122 33.9587 46.0208 33.9587C41.0038 33.9587 37.5001 37.5587 37.5001 42.6413C37.5001 47.693 40.9734 51.2019 46.0512 51.2019C48.6039 51.2019 50.564 50.2648 52.2265 48.3587V48.9033C52.2265 52.4423 50.5935 53.8639 46.2291 53.8639C43.587 53.8639 42.1023 53.0479 41.8056 51.293H38.5691C38.8953 54.6808 41.5383 56.5869 46.1996 56.5869C52.4339 56.5869 55.1064 54.1362 55.1064 48.661V34.4732H52.2265ZM46.4668 36.6817C50.1484 36.6817 52.4339 38.9202 52.4339 42.6413C52.4339 46.3014 50.1484 48.4798 46.4668 48.4798C42.7852 48.4798 40.5283 46.3315 40.5283 42.6413C40.5283 38.9202 42.7852 36.6817 46.4668 36.6817Z" fill="#06286E"/>
<path d="M71.227 34.4732V37.1352C69.9506 35.139 67.8126 33.9587 65.0213 33.9587C60.0043 33.9587 56.5005 37.5587 56.5005 42.6413C56.5005 47.693 59.9739 51.2019 65.0517 51.2019C67.6044 51.2019 69.5645 50.2648 71.227 48.3587V48.9033C71.227 52.4423 69.594 53.8639 65.2295 53.8639C62.5874 53.8639 61.1028 53.0479 60.806 51.293H57.5695C57.8958 54.6808 60.5388 56.5869 65.2 56.5869C71.4344 56.5869 74.1069 54.1362 74.1069 48.661V34.4732H71.227ZM65.4673 36.6817C69.1489 36.6817 71.4344 38.9202 71.4344 42.6413C71.4344 46.3014 69.1489 48.4798 65.4673 48.4798C61.7857 48.4798 59.5288 46.3315 59.5288 42.6413C59.5288 38.9202 61.7857 36.6817 65.4673 36.6817Z" fill="#06286E"/>
<path d="M92.9592 43.216V42.6413C92.9592 37.2263 89.7227 33.9587 84.2597 33.9587C78.9156 33.9587 75.5013 37.3775 75.5013 42.6413C75.5013 47.8742 78.8861 51.2019 84.2597 51.2019C88.5053 51.2019 91.5639 49.2056 92.6919 45.6967H89.3366C88.6841 47.4817 86.7838 48.4798 84.2597 48.4798C80.8454 48.4798 78.559 46.3925 78.559 43.216H92.9592ZM78.6189 41.1286C79.0935 38.3455 81.202 36.6817 84.2597 36.6817C87.3478 36.6817 89.4259 38.3756 89.8711 41.1286H78.6189Z" fill="#06286E"/>
<path d="M92.3372 28.7858L100.799 39.6159L91.9216 50.7483H98.6904L104.035 43.6995L109.052 50.7483H116L107.212 39.5558L115.703 28.7858H109.052L104.094 35.6525L99.1364 28.7858H92.3372Z" fill="#06286E"/>
</svg>
